<?xml version="1.0" encoding="UTF-8" standalone="no"?>
<!-- Created with Inkscape (http://www.inkscape.org/) -->

<svg
   version="1.1"
   id="svg663"
   width="1417"
   height="537"
   viewBox="0 0 1417 537"
   sodipodi:docname="bitmap.png"
   xmlns:inkscape="http://www.inkscape.org/namespaces/inkscape"
   xmlns:sodipodi="http://sodipodi.sourceforge.net/DTD/sodipodi-0.dtd"
   xmlns="http://www.w3.org/2000/svg"
   xmlns:svg="http://www.w3.org/2000/svg">
  <defs
     id="defs667" />
  <sodipodi:namedview
     id="namedview665"
     pagecolor="#ffffff"
     bordercolor="#000000"
     borderopacity="0.25"
     inkscape:showpageshadow="2"
     inkscape:pageopacity="0.0"
     inkscape:pagecheckerboard="0"
     inkscape:deskcolor="#d1d1d1"
     showgrid="false"
     inkscape:zoom="0.35105831"
     inkscape:cx="806.13389"
     inkscape:cy="1.4242648"
     inkscape:window-width="1854"
     inkscape:window-height="1011"
     inkscape:window-x="66"
     inkscape:window-y="32"
     inkscape:window-maximized="1"
     inkscape:current-layer="g669" />
  <g
     inkscape:groupmode="layer"
     inkscape:label="Image"
     id="g669">
    <path
       style="fill:#808080"
       d="m 342.93776,479.8399 c 0.56078,-1.76685 -2.66483,-1.86228 -86.68262,-2.56433 -47.99578,-0.40106 -92.44006,-1.13405 -98.76506,-1.62888 -24.16693,-1.89066 -47.37944,-6.11174 -71.500013,-13.00191 -1.65,-0.47133 -4.575,-1.28135 -6.5,-1.80004 C 51.412605,453.27926 20.598826,438.62996 9.575034,427.60617 5.438666,423.4698 2.487736,417.57206 2.499451,413.46489 2.535261,400.9118 37.190335,369.08266 70.990067,350.55931 l 8,-4.38426 30.484213,-0.5 30.48422,-0.5 0.57326,-3.53397 c 0.7735,-4.76843 1.65572,-5.96603 4.39489,-5.96603 3.00118,0 4.32095,1.67463 4.73173,6.00401 l 0.3317,3.49599 h 38.41078 38.41078 l 1.08922,-3.20592 c 1.6752,-4.93067 3.4064,-6.22421 5.15654,-3.85295 0.78797,1.06762 1.43268,2.95356 1.43268,4.19098 0,1.23742 0.37103,2.47917 0.82452,2.75944 0.45348,0.28027 199.69098,0.586 442.75,0.67941 l 441.9254,0.16983 13.336,-15.87039 c 7.3348,-8.72872 14.9848,-17.89976 17,-20.38008 2.0152,-2.48033 7.5834,-9.23033 12.3739,-15 17.3836,-20.93708 46.1237,-55.59385 49.6642,-59.88847 1.9943,-2.41899 9.4784,-11.41899 16.6314,-20 7.153,-8.58102 19.5198,-23.47685 27.4817,-33.10185 7.962,-9.625 15.4509,-18.625 16.642,-20 2.0352,-2.34939 35.4298,-42.66447 48.7855,-58.89544 3.3469,-4.067486 7.8853,-9.490946 10.0853,-12.052116 2.2,-2.56118 6.7,-7.95532 10,-11.98698 3.3,-4.03165 9.7509,-11.77921 14.3353,-17.21678 l 8.3353,-9.886488 22.1647,0.26891 22.1647,0.2689 -0.3207,2.999998 c -0.1763,1.65 -1.6613,9.525 -3.2998,17.5 -1.6385,7.975 -3.3791,16.525 -3.8679,19 -0.4888,2.475 -1.8223,8.774996 -2.9634,13.999996 -1.141,5.225 -2.4845,11.75 -2.9856,14.5 -0.854,4.6869 -3.267,16.45807 -8.1998,40 -1.1524,5.5 -2.4381,11.8 -2.857,14 -1.7699,9.294 -4.2463,21.40773 -5.5196,27 -0.7513,3.3 -2.3141,10.95 -3.4727,17 -1.1587,6.05 -2.5357,12.9125 -3.0601,15.25 -1.7515,7.80758 -2.7816,12.70169 -3.9468,18.75 -0.6357,3.3 -1.5387,7.575 -2.0066,9.5 -0.4679,1.925 -1.3381,5.975 -1.9337,9 -6.7665,34.36778 -8.2996,41.99326 -9.047,45 -0.4786,1.925 -1.3854,6.2 -2.0151,9.5 -0.6298,3.3 -1.5634,7.62721 -2.0746,9.61602 -0.5113,1.98881 -0.9296,4.80131 -0.9296,6.25 v 2.63398 h 23.3185 c 30.9315,0 34.9828,1.17118 39.7798,11.5 1.545,3.32658 1.8541,6.44115 1.8362,18.5 -0.026,17.71074 -0.8111,22.21009 -4.5627,26.15972 -4.3024,4.52959 -14.0079,8.89594 -28.3718,12.76399 -2.475,0.6665 -5.8819,1.63132 -7.571,2.14405 -1.689,0.51273 -3.9071,0.93224 -4.929,0.93224 -1.0219,0 -3.24,0.42596 -4.929,0.94658 -3.1401,0.96788 -35.068,6.30666 -48.571,8.12173 -10.0679,1.35333 -21.0062,2.84675 -29.5,4.0277 -17.3313,2.40966 -33.3104,4.47401 -48.5,6.26573 -6.875,0.81095 -21.05,2.59388 -31.5,3.96207 -19.8525,2.59923 -24.137,3.14897 -36.5,4.68324 -4.125,0.51191 -10.9875,1.39475 -15.25,1.96185 -4.2625,0.56711 -11.0125,1.44908 -15,1.95994 -3.9875,0.51086 -11.075,1.43209 -15.75,2.04718 -4.675,0.61509 -14.35,1.76538 -21.5,2.5562 -7.15,0.79083 -16.375,1.91518 -20.5,2.49857 -4.125,0.58338 -11.325,1.51749 -16,2.0758 -4.675,0.5583 -11.7625,1.43772 -15.75,1.95425 -11.2278,1.45444 -20.9616,2.69889 -30.25,3.86743 -4.6749,0.58815 -12.3249,1.55191 -16.9999,2.14171 -4.67502,0.58979 -11.65002,1.4683 -15.50002,1.95225 -3.85,0.48395 -13.075,1.57613 -20.5,2.42707 -7.425,0.85094 -16.875,1.99904 -21,2.55133 -8.43991,1.13002 -18.24257,2.36744 -31.5,3.97635 -4.95,0.60072 -12.375,1.58835 -16.5,2.19472 -4.74078,0.6969 -35.26003,1.24508 -82.95621,1.49004 -57.11518,0.29334 -75.63588,0.67825 -76.19538,1.58354 -0.5726,0.92648 -1.49987,0.92093 -4.11479,-0.0246 -4.07863,-1.47489 -25.34792,-1.65378 -26.23362,-0.22068 -0.78327,1.26735 -5.22258,1.31294 -5.66667,0.0582 -0.65999,-1.86477 -328.31144,-4.24675 -330.15799,-2.4002 -0.36189,0.3619 -0.15679,1.2619 0.45578,2 1.65587,1.9952 -2.02208,1.75424 -6.22748,-0.40799 -2.12784,-1.09404 -5.65264,-1.75 -9.40364,-1.75 -3.751,0 -7.2758,0.65596 -9.40364,1.75 -4.47054,2.29856 -6.39603,2.26953 -5.64868,-0.0851 z"
       id="path673" />
    <path
       style="fill:#808080"
       d="m 1400.5342,79.121834 c 0.7089,-0.85427 1.645,-3.44177 2.0801,-5.75 0.4352,-2.30823 1.272,-6.81964 1.8596,-10.02537 0.5877,-3.20572 1.1692,-6.35572 1.2923,-7 0.1637,-0.85666 -5.1805,-1.24403 -19.8891,-1.44168 l -20.113,-0.27027 -3.6995,4.51475 c -2.0347,2.48311 -3.4198,4.96724 -3.078,5.52027 0.3769,0.60978 7.2657,1.00552 17.5034,1.00552 9.6577,0 17.1348,0.40909 17.4728,0.95598 0.325,0.52579 -0.099,2.60575 -0.941,4.62213 -1.6122,3.85855 -1.9854,7.63499 -0.8651,8.75522 1.2737,1.27373 7.0959,0.65759 8.3775,-0.88655 z"
       id="path860" />
    <path
       style="fill:#808080"
       d="m 146.99008,342.09172 c 0,-1.91398 -0.51096,-2.91667 -1.4863,-2.91667 -1.64445,0 -2.50638,2.77372 -1.59775,5.14157 0.94999,2.47562 3.08405,0.93605 3.08405,-2.2249 z"
       id="path858" />
    <path
       style="fill:#808080"
       d="m 1345.513,344.66272 c 0.9369,-0.50141 1.9856,-2.61626 2.3304,-4.69967 0.6769,-4.09006 2.2744,-12.23381 3.7346,-19.03801 0.5016,-2.3375 1.3224,-6.1625 1.824,-8.5 1.1455,-5.33766 2.918,-13.88972 4.0935,-19.75 1.5499,-7.7265 2.681,-13.23641 4.3112,-21 0.8662,-4.125 2.0464,-9.975 2.6227,-13 0.5763,-3.025 1.9566,-9.775 3.0674,-15 1.1108,-5.225 2.4625,-11.75 3.0038,-14.5 0.5413,-2.75 1.4366,-7.025 1.9894,-9.5 0.5528,-2.475 1.4254,-6.75 1.939,-9.5 0.5136,-2.75 2.1421,-10.85 3.6188,-18 1.4768,-7.15 3.12,-15.25 3.6516,-18 0.9796,-5.0678 1.9442,-9.6561 3.8365,-18.25 1.1327,-5.14397 2.3022,-10.8953 3.8128,-18.75 0.5289,-2.75 2.6038,-12.875 4.6108,-22.5 4.6297,-22.202036 5.7372,-28.856496 5.001,-30.047716 -0.724,-1.17153 -6.4852,-1.22937 -8.2928,-0.0833 -0.7273,0.46112 -1.7087,2.36673 -2.1809,4.23469 -1.2065,4.77218 -4.941,18.715866 -6.1324,22.896286 -0.5485,1.925 -1.3723,5.075 -1.8305,7 -0.4583,1.925 -1.7861,6.875 -2.9509,11 -1.1647,4.125 -2.7991,10.2 -3.632,13.5 -0.8329,3.3 -1.9299,7.575 -2.4379,9.5 -0.508,1.925 -1.2026,4.85 -1.5437,6.5 -0.341,1.65 -1.0023,3.9 -1.4694,5 -0.4671,1.1 -1.0769,3.125 -1.3551,4.5 -0.2782,1.375 -1.0184,4.3 -1.6449,6.5 -0.6265,2.2 -1.3667,5.125 -1.6449,6.5 -0.2782,1.375 -0.8722,3.4 -1.3201,4.5 -0.4479,1.1 -1.305,4.25 -1.9046,7 -0.9428,4.32344 -5.168,20.39381 -8.282,31.5 -0.5398,1.925 -1.3715,5.075 -1.8484,7 -0.4769,1.925 -1.3769,5.3 -2,7.5 -0.6231,2.2 -1.5119,5.575 -1.975,7.5 -0.4631,1.925 -2.0558,8 -3.5393,13.5 -1.4834,5.5 -2.9243,11.46667 -3.2019,13.25927 -0.2776,1.7926 -0.9051,3.50665 -1.3943,3.80902 -0.4892,0.30236 -0.8895,1.62701 -0.8895,2.94367 0,1.31667 -0.4031,3.42761 -0.8959,4.69099 -0.4927,1.26338 -1.3556,4.09705 -1.9175,6.29705 -2.175,8.51582 -3.4439,13.0775 -4.1727,15 -0.417,1.1 -1.5411,5.6 -2.498,10 -0.957,4.4 -2.0873,9.125 -2.5119,10.5 -0.4246,1.375 -1.3211,4.525 -1.9922,7 -0.671,2.475 -1.6232,5.53367 -2.1159,6.79705 -0.4928,1.26338 -0.8959,3.24192 -0.8959,4.39676 0,2.05274 0.2608,2.08411 11.6598,1.40262 6.4129,-0.3834 12.4263,-1.10734 13.3632,-1.60875 z"
       id="path856" />
    <path
       style="fill:#808080"
       d="m 1237.0946,348.90973 c 0.6075,-0.40408 3.36,-5.23469 6.1168,-10.73469 9.9148,-19.78122 77.8542,-154.07112 94.1628,-186.1237 4.1962,-8.24719 4.1125,-9.58081 -0.5767,-9.18667 -3.4295,0.28826 -3.936,0.77339 -7.1109,6.81037 -5.5241,10.50366 -17.0495,32.14007 -23.4382,44 -1.9258,3.575 -8.7797,16.4 -15.2309,28.5 -6.4512,12.1 -12.7525,23.8 -14.003,26 -1.2505,2.2 -5.0671,9.34571 -8.4812,15.87935 -3.4142,6.53364 -7.5771,14.40864 -9.2508,17.5 -1.6737,3.09136 -5.5189,10.34565 -8.545,16.12065 -3.026,5.775 -5.8273,10.95 -6.2252,11.5 -0.3978,0.55 -3.3332,5.95 -6.523,12 -3.1897,6.05 -7.532,14.07779 -9.6494,17.83953 -3.8379,6.81827 -4.4469,8.73014 -3.1832,9.9938 0.9012,0.90122 10.5546,0.82145 11.9379,-0.0986 z"
       id="path854" />
    <path
       style="fill:#b3b3b3"
       d="m 1220.2025,348.87393 c 0.6668,-0.42378 2.7354,-3.67939 4.5969,-7.23469 5.3436,-10.20577 13.6904,-25.95619 16.9392,-31.96419 18.0586,-33.39566 28.0112,-51.97313 45.0015,-84 2.4801,-4.675 5.8567,-10.975 7.5037,-14 1.6469,-3.025 5.0157,-9.325 7.4861,-14 5.7708,-10.9204 11.0895,-20.82207 15.5775,-29 1.9619,-3.575 4.9748,-9.2 6.6953,-12.5 7.9896,-15.32481 7.6676,-14.96849 13.8093,-15.28079 3.037,-0.15443 5.76,0.10449 6.051,0.57538 0.6093,0.98577 -5.7973,13.79534 -87.3112,174.57432 -8.8865,17.52789 -15.9232,32.103 -15.6371,32.38912 0.9389,0.93888 45.7342,0.25332 61.4264,-0.94008 17.1202,-1.30202 15.6934,-0.52861 18.1125,-9.81795 0.6446,-2.475 1.5914,-5.88195 2.1042,-7.571 0.5127,-1.68905 0.9322,-4.02499 0.9322,-5.19098 0,-1.16599 0.4003,-2.36737 0.8895,-2.66973 0.4892,-0.30237 1.1224,-2.01642 1.407,-3.80902 0.2846,-1.7926 1.0463,-5.05927 1.6928,-7.25927 0.6464,-2.2 1.4198,-5.35 1.7186,-7 0.2989,-1.65 0.8801,-3.45 1.2916,-4 0.4115,-0.55 1.0744,-3.25 1.4731,-6 0.3986,-2.75 1.1761,-5.84343 1.7278,-6.87429 0.5516,-1.03085 1.1268,-2.83085 1.278,-4 0.2388,-1.84507 1.707,-7.43469 5.6807,-21.62571 0.539,-1.925 1.2138,-4.625 1.4994,-6 0.2857,-1.375 1.362,-5.425 2.3918,-9 1.0298,-3.575 2.8298,-10.325 3.9999,-15 2.1281,-8.50268 3.178,-12.4351 5.0727,-19 0.5555,-1.925 1.4002,-5.075 1.8771,-7 0.8651,-3.49235 2.2088,-8.37746 4.126,-15 0.5572,-1.925 1.2433,-4.625 1.5247,-6 0.2813,-1.375 0.7823,-3.175 1.1134,-4 0.331,-0.825 1.1507,-3.975 1.8216,-7 0.6709,-3.025 2.2005,-9.1 3.3993,-13.5 1.1987,-4.4 2.4013,-9.125 2.6726,-10.5 0.2712,-1.375 0.8753,-3.4 1.3424,-4.5 0.4671,-1.1 1.0769,-3.125 1.3551,-4.5 0.2782,-1.375 0.9574,-4.075 1.5095,-6 0.5521,-1.925 1.7128,-6.425 2.5794,-10 0.8666,-3.575 1.9888,-7.4 2.4939,-8.5 0.505,-1.1 1.2027,-3.8 1.5505,-6 0.3479,-2.2 1.0247,-5.35 1.5043,-7 0.4795,-1.65 1.4036,-5.024996 2.0535,-7.499996 0.65,-2.475 1.5466,-5.4 1.9925,-6.5 0.4458,-1.1 1.048,-3.125 1.3382,-4.5 0.2901,-1.375 0.8079,-3.85 1.1506,-5.5 0.3427,-1.65 1.0836,-3.95335 1.6465,-5.11856 0.5628,-1.16521 0.8606,-2.96521 0.6618,-4 -0.3357,-1.7467 -1.6524,-1.9009 -18.385,-2.15317 l -18.0235,-0.27174 -3.6075,4.27174 c -4.0586,4.80583 -28.4553,34.243266 -30.8004,37.164236 -0.8357,1.04087 -3.3194,4.01488 -5.5194,6.6089 -4.7525,5.60364 -7.3268,8.69915 -46.5694,55.99859 -16.6555,20.075 -37.066,44.66003 -45.3567,54.6334 -8.2906,9.97337 -19.1239,23.01382 -24.0739,28.97878 -60.784,73.24736 -73.5,88.79349 -73.5,89.8588 0,1.39089 14.6832,2.26967 57.5,3.44134 13.75,0.37627 27.475,0.76803 30.5,0.87059 3.025,0.10255 6.0456,-0.16026 6.7125,-0.58403 z"
       id="path852" />
    <path
       style="fill:#808080"
       d="m 1409.24,361.77542 c 2.2161,-0.0684 3.25,-0.59021 3.25,-1.64021 0,-2.89655 -3.807,-8.95861 -6.6548,-10.59689 -4.0687,-2.34058 -11.0687,-3.33764 -12.8798,-1.83457 -1.762,1.46232 -2.039,11.99772 -0.3596,13.6771 0.6423,0.64227 3.6813,0.97777 7.25,0.80037 3.3793,-0.16798 7.6067,-0.35059 9.3942,-0.4058 z"
       id="path850" />
    <path
       style="fill:#808080"
       d="m 1376.9082,363.06806 c 1.2421,-0.47664 1.5818,-2.1716 1.5818,-7.89301 0,-5.72141 -0.3397,-7.41637 -1.5818,-7.89301 -2.5487,-0.97804 -5.9245,-0.7007 -7.2182,0.59301 -1.4709,1.47094 -1.5867,11.20895 -0.1648,13.86574 1.0268,1.91861 4.3058,2.5081 7.383,1.32727 z"
       id="path848" />
    <path
       style="fill:#808080"
       d="m 705.49008,396.79168 c 0,-1.06221 -4.006,-2.23096 -5.17354,-1.50938 -1.81476,1.12159 -0.66005,2.39275 2.17354,2.39275 1.65,0 3,-0.39752 3,-0.88337 z"
       id="path846" />
    <path
       style="fill:#808080"
       d="m 711.99008,397.67505 c -0.33992,-0.55 -1.37898,-0.99311 -2.30902,-0.98469 -1.45727,0.0132 -1.48367,0.14929 -0.19098,0.98469 1.95837,1.2656 3.28218,1.2656 2.5,0 z"
       id="path844" />
    <path
       style="fill:#808080"
       d="m 356.00632,373.92626 c -6.90544,-0.18366 -12.4144,-0.77869 -13,-1.40415 -1.41426,-1.51055 25.25642,-0.4744 26.77085,1.04003 0.81721,0.81721 0.72765,1.05578 -0.33709,0.89788 -0.7975,-0.11827 -6.84269,-0.35846 -13.43376,-0.53376 z"
       id="path842" />
    <path
       style="fill:#808080"
       d="m 437.09384,378.94548 c -0.40126,-0.40127 -8.01376,-1.04678 -16.91667,-1.43448 -39.95965,-1.74014 -46.78699,-2.18857 -47.35678,-3.11051 -0.62838,-1.01674 8.43075,-0.73827 39.16969,1.20403 8.8,0.55604 21.85,1.29877 29,1.6505 15.20136,0.74781 19.25519,2.42003 5.86667,2.42003 -4.96834,0 -9.36164,-0.32831 -9.76291,-0.72957 z"
       id="path840" />
    <path
       style="fill:#808080"
       d="m 627.00632,390.92626 c -6.8565,-0.18236 -12.41855,-0.78051 -13,-1.39803 -1.32967,-1.41218 22.93329,-0.52489 26.48376,0.9685 1.97997,0.83281 2.08398,1.02 0.5,0.8999 -1.1,-0.0834 -7.39269,-0.29507 -13.98376,-0.47037 z"
       id="path838" />
    <path
       style="fill:#808080"
       d="m 1044.3238,413.7989 c 1.0631,-0.67387 0.994,-0.97594 -0.3402,-1.48793 -0.9207,-0.35333 -2.0604,-0.40363 -2.5326,-0.11179 -0.4722,0.29183 -3.9191,0.0353 -7.6598,-0.57008 -3.7407,-0.60538 -10.4012,-1.50704 -14.8012,-2.00369 -4.3999,-0.49665 -14.0749,-1.60723 -21.49992,-2.46795 -7.425,-0.86072 -17.325,-1.98568 -22,-2.49991 -4.675,-0.51423 -12.1,-1.36956 -16.5,-1.90074 -7.92198,-0.95636 -20.00537,-2.38251 -34.5,-4.07188 -16.32187,-1.90233 -25.87069,-3.03679 -34,-4.03941 -17.3058,-2.13439 -24.82049,-3.01204 -38,-4.43807 -7.425,-0.80339 -17.55,-1.94163 -22.5,-2.52942 -4.95,-0.58779 -13.05,-1.53002 -18,-2.09384 -4.95,-0.56382 -12.6,-1.46167 -17,-1.99523 -4.4,-0.53355 -11.6,-1.37437 -16,-1.86848 -4.4,-0.49411 -11.9375,-1.38147 -16.75,-1.97191 -9.8723,-1.21121 -17.27146,-2.05393 -43.75,-4.98285 -10.175,-1.12551 -22.1,-2.49552 -26.5,-3.04447 -4.4,-0.54895 -10.475,-1.26546 -13.5,-1.59224 -3.025,-0.32678 -8.875,-1.01104 -13,-1.52058 -6.90593,-0.85306 -12.30451,-1.49632 -33,-3.93207 -4.125,-0.4855 -11.775,-1.35279 -17,-1.92732 -5.225,-0.57453 -15.125,-1.70203 -22,-2.50556 -6.875,-0.80353 -18.8,-2.15602 -26.5,-3.00553 -7.7,-0.84951 -17.6,-1.98989 -22,-2.53417 -4.4,-0.54428 -12.5,-1.47712 -18,-2.07298 -5.5,-0.59585 -12.475,-1.57465 -15.5,-2.17511 -6.58692,-1.30751 -108.24678,-2.61816 -121.5,-1.56644 -21.93271,1.74048 -34.52856,3.05542 -41.5,4.33238 -16.98781,3.11165 -26.24562,6.70363 -28.17146,10.93038 -1.991,4.36977 -0.67001,5.27395 8.85345,6.05995 11.2691,0.93006 15.18977,2.34584 6.31801,2.28147 -8.3789,-0.0608 -9,0.0114 -9,1.04576 0,2.43336 21.757,7.63592 42,10.04308 28.42841,3.38052 55.87145,4.91116 101.5,5.66115 34.77549,0.57161 37.32718,0.4931 42.44189,-1.30577 2.99304,-1.05267 5.59812,-2.38263 5.78906,-2.95546 0.34898,-1.04693 -3.19622,-1.34843 -37.52721,-3.19147 -15.90549,-0.85388 -21.98062,-1.92243 -13.12041,-2.30774 5.88535,-0.25594 12.65932,0.10216 53.92957,2.85098 7.05944,0.4702 9.79121,0.18314 16,-1.6813 8.60786,-2.58485 24.06627,-3.72922 28.26016,-2.09208 2.2592,0.88191 2.66235,1.52362 2.17561,3.46295 -0.43586,1.73661 -0.10401,2.57257 1.22694,3.09079 1.5917,0.61973 30.6976,2.44896 40.27439,2.53113 1.96854,0.0169 3.04206,0.39348 2.5,0.87699 -0.5225,0.46607 -8.6,0.45929 -17.95,-0.0151 -31.82423,-1.61456 -41.20263,-1.53934 -43.09765,0.34567 -1.581,1.57265 -1.47393,1.71017 1.70537,2.19044 1.86575,0.28183 21.16728,1.21751 42.89228,2.07927 21.725,0.86176 46.64918,1.8611 55.38707,2.22077 13.43537,0.55301 15.81467,0.43615 15.41794,-0.75727 -0.357,-1.07389 -2.93979,-1.46342 -10.80556,-1.62969 -6.23284,-0.13175 -10.7658,-0.67594 -11.41794,-1.37074 -0.81513,-0.86844 3.3519,-0.99538 16.91849,-0.51538 16.02359,0.56693 18.8784,0.41679 26,-1.36746 12.9955,-3.25589 22.05142,-2.41218 24.30457,2.26436 1.1991,2.48882 1.8054,2.71727 7.5,2.82602 3.40748,0.0651 7.54543,0.46184 9.19543,0.88169 2.43529,0.61968 1.87058,0.78852 -3,0.897 -7.74332,0.17245 -10.55609,1.7292 -4.41889,2.44567 5.58017,0.65144 8.51627,0.64244 12.91889,-0.0396 2.96881,-0.45991 3.19647,-0.66516 1.5,-1.35236 -1.43474,-0.58118 -0.44553,-0.87455 3.5,-1.03798 3.025,-0.1253 6.175,-0.17839 7,-0.11797 0.825,0.0604 9.825,0.5985 20,1.19575 10.175,0.59724 24.8,1.50923 32.5,2.02664 7.7,0.5174 21.425,1.39215 30.5,1.94388 25.69455,1.56214 48.12945,2.95073 64.5,3.99218 8.25,0.52484 23.325,1.42333 33.5,1.99664 10.175,0.57332 25.025,1.49129 33,2.03995 25.6815,1.76682 29.16276,1.97334 50.40722,2.99036 11.4988,0.55048 21.1363,1.23014 21.4166,1.51035 0.8445,0.8445 11.5764,0.54203 13.0099,-0.36668 z"
       id="path836" />
    <path
       style="fill:#b3b3b3"
       d="m 32.490067,398.17505 c 0,-11.07973 -0.352414,-16.5 -1.072793,-16.5 -0.590037,0 -5.747782,4.70911 -11.461658,10.46468 -10.123939,10.19782 -14.465549,16.34922 -14.465549,20.49548 0,1.95239 0.578782,2.03984 13.5,2.03984 h 13.5 z"
       id="path834" />
    <path
       style="fill:#808080"
       d="m 526.05668,421.69412 c 3.26337,-1.17008 9.5334,-3.23147 13.9334,-4.58086 4.4,-1.34939 9.35,-2.87456 11,-3.38926 5.09973,-1.59081 47.37643,-11.69082 60.89464,-14.54788 8.97868,-1.89764 -10.36025,-4.20658 -36.89464,-4.40499 -21.44373,-0.16034 -34.5,-1.1116 -34.5,-2.51361 0,-1.79025 9.88824,-7.23045 15.76872,-8.67547 2.89779,-0.71208 5.11314,-1.76996 4.92299,-2.35085 -0.75625,-2.31021 -10.90639,-1.60633 -20.69171,1.43491 -1.375,0.42734 -4.3,1.26527 -6.5,1.86205 -12.793,3.47032 -38.58737,11.39619 -46,14.1345 -19.82483,7.3235 -30.95065,11.86434 -31.24685,12.75293 -0.20279,0.60838 3.0899,1.49291 7.95035,2.13574 10.87359,1.43811 13.41319,1.84392 18.7965,3.00353 10.2913,2.21685 20.23486,5.53584 25.5,8.51147 3.90487,2.20686 4.08482,2.21894 7.5666,0.50792 1.96162,-0.964 6.23662,-2.71005 9.5,-3.88013 z"
       id="path832" />
    <path
       style="fill:#808080"
       d="m 394.49008,429.67505 c 0,-13.19144 -0.1121,-14 -1.94098,-14 -1.06754,0 -2.2191,0.45 -2.55902,1 -0.33992,0.55 -1.40729,1 -2.37193,1 -2.79526,0 -6.86041,5.12005 -7.5783,9.54487 -1.06585,6.56947 2.11376,12.10738 8.55725,14.90415 5.99812,2.60344 5.89298,2.82556 5.89298,-12.44902 z"
       id="path830" />
    <path
       style="fill:#808080"
       d="m 538.26886,439.77872 c -0.2748,-12.42369 -0.31278,-12.60848 -2.66009,-12.94043 -3.05606,-0.43218 -8.7399,2.62109 -10.86545,5.83676 -1.01768,1.5396 -1.62106,4.40013 -1.57067,7.44622 0.0682,4.12234 0.60741,5.4986 3.23721,8.26247 3.8599,4.05667 9.03491,6.44221 10.859,5.00571 0.94545,-0.74456 1.20612,-4.29242 1,-13.61073 z"
       id="path828" />
    <path
       style="fill:#808080"
       d="m 389.60099,468.19501 c -0.15247,-3.28902 -0.49136,-6.32652 -0.75308,-6.75 -0.26173,-0.42348 -18.44931,-0.76996 -40.41685,-0.76996 h -39.94098 v 2.46958 c 0,2.03882 1.48736,5.4716 4.67608,10.79224 0.25111,0.419 17.61405,0.644 38.58431,0.5 l 38.12774,-0.26182 z"
       id="path826" />
    <path
       style="fill:#808080"
       d="m 839.94313,471.1815 c 1.47826,-3.02146 2.54356,-6.50896 2.36735,-7.75 l -0.3204,-2.25645 h -39 -39 l -0.29206,7.75 -0.29207,7.75 h 36.92472 36.92471 z"
       id="path824" />
    <path
       style="fill:#808080"
       d="m 174.41668,373.5379 c -1.35452,-2.53094 -0.54122,-8.85601 1.28797,-10.01662 0.70699,-0.44858 5.15319,-0.8225 9.88044,-0.83092 9.56765,-0.017 11.90499,1.2354 11.90499,6.37917 0,5.99264 -1.1134,6.60552 -12,6.60552 -9.11859,0 -10.02305,-0.17456 -11.0734,-2.13715 z"
       id="path822" />
    <path
       style="fill:#808080"
       d="m 102.49007,370.65873 v -8.24201 l 6.25,0.70499 c 11.59435,1.30784 16.18509,6.97762 10.20131,12.59909 -2.06364,1.93868 -3.87166,2.46913 -9.50001,2.78716 l -6.9513,0.39278 z"
       id="path820" />
    <path
       style="fill:#cccccc"
       d="m 85.156734,379.00838 c -1.271686,-1.27168 -0.748312,-16.09321 0.583333,-16.51955 1.041233,-0.33336 8.354547,-0.27768 11,0.0838 0.4125,0.0564 0.75,3.92747 0.75,8.60247 v 8.5 h -5.833333 c -3.208334,0 -6.133334,-0.3 -6.5,-0.66667 z"
       id="path818" />
    <path
       style="fill:#cccccc"
       d="m 60.490067,380.10392 c 0,-1.05049 2.05347,-7.53643 2.9956,-9.46169 0.412549,-0.84306 1.06176,-2.95186 1.442692,-4.68622 0.643052,-2.9278 1.065636,-3.20001 5.906772,-3.80487 2.867794,-0.35831 6.550843,-0.49951 8.184553,-0.31378 l 2.970383,0.33769 0.294857,7.90514 c 0.162171,4.34783 -0.06283,8.24014 -0.5,8.64958 -1.108159,1.03786 -21.294857,2.3405 -21.294857,1.37415 z"
       id="path816" />
    <path
       style="fill:#808080"
       d="m 227.49008,391.96561 c -3.4993,-1.28666 -5,-3.64966 -5,-7.87297 0,-3.4245 0.52293,-4.68376 2.63486,-6.34501 7.10814,-5.59127 16.07148,1.71124 12.74396,10.38262 -1.16934,3.04723 -6.8316,5.13965 -10.37882,3.83536 z"
       id="path814" />
    <path
       style="fill:#808080"
       d="m 418.24008,412.93106 c 4.5375,-0.18529 11.9625,-0.18529 16.5,0 4.5375,0.1853 0.825,0.3369 -8.25,0.3369 -9.075,0 -12.7875,-0.1516 -8.25,-0.3369 z"
       id="path812" />
    <path
       style="fill:#808080"
       d="m 516.50539,466.92505 c -0.008,-1.7875 0.15721,-3.25 0.36806,-3.25 0.90929,0 1.29567,3.89829 0.50937,5.1393 -0.58614,0.92513 -0.86702,0.32034 -0.87743,-1.8893 z"
       id="path810" />
    <path
       style="fill:#999999"
       d="m 633.31347,475.80536 c 0.81276,-0.51531 1.37439,-3.01742 1.45557,-6.48468 0.16858,-7.2001 1.72104,-7.44191 1.72104,-0.26807 0,3.35584 0.51953,5.80872 1.3819,6.52443 1.88687,1.56596 72.1414,0.95746 78.8681,-0.68311 3.52415,-0.8595 5.97585,-0.87252 9.5,-0.0505 2.6125,0.60941 8.9125,1.30169 14,1.53842 l 9.25,0.4304 v -7.5096 c 0,-4.13028 -0.38565,-7.74795 -0.85701,-8.03926 -1.67165,-1.03314 -110.24358,-0.74979 -111.49763,0.29098 -0.75932,0.63018 -1.76049,0.65961 -2.6789,0.0787 -0.85631,-0.54159 -25.25162,-0.93386 -58.63313,-0.9428 -44.83347,-0.012 -57.26554,0.25437 -57.625,1.23469 -0.36666,1 -0.72333,1 -1.78333,0 -1.95377,-1.84318 -109.20822,-1.81859 -110.73859,0.0254 -0.58217,0.70147 -1.2427,3.51397 -1.46786,6.25 -0.27881,3.38804 -0.37895,2.74208 -0.31396,-2.02539 l 0.0954,-7 66,-0.5 c 36.3,-0.275 65.91109,-0.88843 65.80243,-1.36317 -0.10866,-0.47474 -2.46284,-1.91269 -5.23151,-3.19543 -10.49354,-4.86173 -13.08703,-17.14515 -5.27234,-24.97117 5.26028,-5.26792 7.5646,-5.61859 40.20142,-6.11773 l 26.5,-0.40529 9.5,-4.10657 c 16.17659,-6.99265 23.73294,-9.89399 38,-14.59046 4.675,-1.53893 9.06984,-3.15588 9.76631,-3.59322 4.47563,-2.8104 -9.30953,-4.27219 -19.76631,-2.09604 -4.125,0.85845 -9.525,1.98073 -12,2.49395 -2.475,0.51322 -6.3,1.33686 -8.5,1.8303 -21.40599,4.80119 -28.64752,6.50587 -39,9.18071 -6.6,1.70528 -13.575,3.47145 -15.5,3.92482 -3.64118,0.85756 -11.54075,3.2429 -23.5,7.09604 -3.85,1.24043 -8.8,3.19478 -11,4.34302 -3.65276,1.90646 -4.02775,2.47743 -4.31963,6.57716 -0.17579,2.46921 -0.97399,5.21254 -1.77377,6.09628 -1.83053,2.02271 -8.95873,5.54253 -12.9066,6.37311 -1.65,0.34715 -5.025,1.12286 -7.5,1.72382 -6.6122,1.60552 -79.60709,2.27129 -88.5,0.80718 -15.2793,-2.51553 -21.47762,-5.4546 -25.77578,-12.22213 -3.59846,-5.66584 -1.28255,-15.40757 4.57532,-19.24579 5.26372,-3.44884 18.49989,-5.60768 21.70047,-3.53931 1.12759,0.7287 0.63104,0.97698 -2,1 -1.925,0.0168 -4.04204,0.37515 -4.70453,0.79623 -0.83254,0.52916 -1.25046,5.0604 -1.35325,14.6726 -0.12485,11.6747 0.10655,14.09367 1.4416,15.06987 5.86185,4.28629 81.03235,3.92553 99.11618,-0.47567 2.2,-0.53543 5.26708,-1.27677 6.81573,-1.64741 3.30442,-0.79086 9.68427,-6.48859 9.68427,-8.64884 0,-5.02272 -10.93683,-11.37195 -25.35908,-14.72187 -8.71832,-2.02504 -20.95423,-3.84305 -30.53782,-4.53731 -13.85654,-1.00379 -14.76085,-1.59586 -7.5399,-4.93648 7.08359,-3.27708 35.97913,-14.57112 37.27986,-14.57112 0.50163,0 1.47225,-0.675 2.15694,-1.5 1.09004,-1.31342 0.14129,-1.50847 -7.62756,-1.56806 -4.87984,-0.0374 -11.79744,-0.24327 -15.37244,-0.45742 -3.575,-0.21415 -20.225,-0.85934 -37,-1.43376 -16.775,-0.57442 -34.775,-1.50757 -40,-2.07367 -29.97938,-3.24808 -31.31089,-3.42927 -44.5,-6.05519 -12.05962,-2.40104 -24.25337,-6.87691 -26.99836,-9.91009 -0.91912,-1.01562 -1.90739,-3.60803 -2.19615,-5.76091 -0.48204,-3.59382 -0.2108,-4.17334 3.31259,-7.07762 2.11068,-1.7398 4.56008,-3.16328 5.4431,-3.16328 0.88302,0 1.91389,-0.3084 2.29082,-0.68534 1.03884,-1.03883 7.89113,-3.28254 10.077,-3.2996 1.86895,-0.0146 6.97464,-1.43376 11.071,-3.07727 2.60375,-1.04466 9.31357,-0.99816 -138.83864,-0.96219 -69.76125,0.0169 -128.03626,0.32677 -129.50001,0.68853 -2.522755,0.62349 -11.888432,5.37488 -18.398767,9.33405 l -2.990414,1.81858 2.538862,1.34162 2.538863,1.34162 -2.032867,4.5 c -2.922486,6.46928 -4.520386,10.24912 -5.178593,12.25 -0.425466,1.29337 -1.692815,1.76235 -4.857062,1.79734 -2.354762,0.026 -6.418885,0.2372 -9.031385,0.46925 -2.6125,0.23204 -4.75,0.002 -4.75,-0.51074 0,-0.51296 3.9375,-4.36943 8.75,-8.56994 14.744326,-12.86935 12.610548,-13.56958 -3.75,-1.23061 l -8.5,6.41061 -0.272819,18.89713 c -0.196134,13.58541 -0.617763,19.11627 -1.5,19.67673 -0.67495,0.42878 -6.713123,0.7865 -13.418164,0.79492 -6.930722,0.009 -12.454405,0.44154 -12.80148,1.00311 -0.990464,1.60261 8.449307,11.0122 11.047517,11.0122 1.254754,0 3.030906,0.28762 3.947004,0.63916 1.325172,0.50852 1.39299,0.80773 0.331788,1.46384 -2.093061,1.29407 0.339999,3.0607 12.666154,9.19682 14.663354,7.2996 37.525213,15.69104 54,19.82069 2.2,0.55146 5.303444,1.41075 6.896542,1.90952 1.593098,0.49878 3.280598,0.66951 3.749998,0.3794 1.297223,-0.80172 1.075703,-30.15404 -0.233672,-30.96328 -0.724755,-0.44792 -0.753799,-1.00522 -0.08713,-1.67189 2.546925,-2.54692 3.174265,0.74607 3.174265,16.66231 0,17.83625 0.0295,17.92902 6,18.88942 1.925,0.30965 5.75,1.01399 8.5,1.56519 10.54021,2.11267 32.5329,5.09018 44.89523,6.07821 17.67565,1.41267 147.26813,1.38433 148.14372,-0.0324 0.36134,-0.58466 -0.0986,-1.89792 -1.02208,-2.91835 -1.01378,-1.12022 -1.74598,-3.76974 -1.84796,-6.68699 l -0.1689,-4.83165 h 42 42 l 0.2908,7.67986 0.2908,7.67985 39.7092,0.30176 c 21.84006,0.16597 49.8342,0.31004 62.2092,0.32015 l 22.5,0.0184 0.33792,-2.39015 0.33791,-2.39014 1.19078,2.39014 1.19078,2.39015 28.47131,0.52348 c 50.3393,0.92555 84.43642,0.96801 85.79469,0.10683 z"
       id="path808" />
    <path
       style="fill:#808080"
       d="m 1319.49,391.68887 c 37.5366,-0.9795 48.341,-1.65307 47.5313,-2.96317 -0.2561,-0.41434 -5.9929,-1.07795 -12.7484,-1.4747 -6.7556,-0.39675 -18.8079,-1.1569 -26.7829,-1.68923 -23.9195,-1.59662 -132.4799,-2.28769 -147.5,-0.93896 -13.9093,1.24899 -20.5,2.55856 -20.5,4.07333 0,0.51744 1.0125,1.18681 2.25,1.48747 9.3021,2.26006 96.821,3.09517 157.75,1.50526 z"
       id="path806" />
    <path
       style="fill:#808080"
       d="m 1188.49,394.65541 c -25.4621,-1.02847 -34,-2.54827 -34,-6.05217 0,-1.0218 0.7875,-2.26444 1.75,-2.76142 2.6184,-1.35198 13.1788,-2.9696 27.75,-4.25068 15.0892,-1.32661 110.9442,-0.63605 137.5,0.99059 50.2019,3.07503 77.0616,5.72177 77.0588,7.59332 0,1.40315 -8.4291,2.28386 -23.0588,2.40988 -6.875,0.0592 -18.575,0.52889 -26,1.04371 -17.6677,1.22499 -137.2171,1.98741 -161,1.02677 z"
       id="path804" />
    <path
       style="fill:#999999"
       d="m 893.99008,475.63813 c 11.32672,-1.59652 37.28196,-4.86395 47,-5.9167 9.116,-0.98753 18.77232,-2.1675 33.75,-4.12413 4.5375,-0.59276 11.625,-1.47877 15.75,-1.9689 4.125,-0.49014 11.10002,-1.36914 15.50002,-1.95335 9.3048,-1.23544 17.9604,-2.2867 35.9999,-4.37233 7.15,-0.82664 16.375,-1.99586 20.5,-2.59827 4.125,-0.6024 11.55,-1.55804 16.5,-2.12363 4.95,-0.56559 12.375,-1.46476 16.5,-1.99815 7.7062,-0.99647 17.1576,-2.18485 30.75,-3.86638 4.2625,-0.52731 11.125,-1.42839 15.25,-2.0024 9.1273,-1.27009 18.2739,-2.41126 35.9367,-4.48361 7.3902,-0.86708 16.3682,-2.04481 19.951,-2.61717 3.5829,-0.57236 10.3613,-1.45418 15.0633,-1.95959 10.7708,-1.15775 22.5309,-2.598 31.549,-3.86377 21.453,-3.01111 25.9221,-3.60388 49,-6.49925 11.8667,-1.4888 35.8515,-4.98404 46.5,-6.77631 3.025,-0.50915 7.975,-1.33816 11,-1.84226 13.189,-2.19788 17.1617,-3.0312 28.3488,-5.94652 14.6624,-3.82101 25.158,-8.20255 29.3497,-12.2525 4.0357,-3.89928 5.3015,-9.46601 5.3015,-23.31535 v -10.41904 l -11.7458,-0.28173 -11.7458,-0.28174 -0.2235,-7.44884 c -0.2807,-9.35553 -0.5666,-10.05116 -4.1311,-10.05116 -4.1839,0 -5.026,1.63439 -5.3581,10.39979 l -0.2957,7.80502 -6.5,0.0965 -6.5,0.0965 -0.5,-8.94888 -0.5,-8.94888 -8,0.0696 c -4.4,0.0383 -10.925,0.36056 -14.5,0.71618 -3.575,0.35562 -17.8935,1.10439 -31.8189,1.66394 -13.9253,0.55954 -25.7128,1.26084 -26.1943,1.55844 -1.5624,0.96563 -112.1503,0.50685 -123.4868,-0.51229 -19.045,-1.71211 -74.5345,-2.03094 -354.49992,-2.03683 -149.875,-0.003 -273.8125,0.005 -275.41667,0.0176 -1.60416,0.0128 -2.59352,0.34649 -2.19857,0.74144 0.69716,0.69717 5.04731,1.38148 20.61524,3.24294 4.125,0.49322 11.775,1.4076 17,2.03195 5.225,0.62435 13.1,1.52463 17.5,2.00063 18.15752,1.96428 35.75379,3.9521 48,5.42249 13.62867,1.63638 23.35673,2.74565 40,4.56113 5.5,0.59995 12.50209,1.52551 15.5602,2.0568 3.0581,0.53128 7.36296,0.96597 9.56634,0.96597 2.20338,0 6.45129,0.40287 9.4398,0.89526 2.98851,0.4924 9.70866,1.38811 14.93366,1.99048 5.225,0.60236 17.15,1.9899 26.5,3.08342 9.35,1.09352 21.5,2.4775 27,3.07553 10.5843,1.15085 19.30483,2.1599 34,3.93415 4.95,0.59765 12.6,1.48882 17,1.98037 4.4,0.49156 11.9375,1.37683 16.75,1.96727 13.2699,1.62806 24.85417,2.97519 39.75,4.6225 24.03818,2.65835 30.35324,3.3744 39,4.42207 4.675,0.56644 12.55,1.50578 17.5,2.08741 4.95,0.58164 12.375,1.46944 16.5,1.97291 20.87545,2.54787 28.19315,3.40633 76.49992,8.97437 4.4,0.50716 11.825,1.40458 16.5,1.99426 4.675,0.58968 12.1,1.49087 16.5,2.00263 4.4,0.51177 11.5329,1.35097 15.851,1.8649 8.9068,1.06009 11.4602,2.49335 7.276,4.08417 -1.4842,0.56432 -4.145,0.80168 -5.9128,0.52747 -1.7678,-0.27421 -14.2392,-0.97024 -27.7142,-1.54673 -23.1522,-0.99051 -33.4928,-1.47948 -81.49992,-3.85383 -11,-0.54404 -25.625,-1.24221 -32.5,-1.55148 -6.875,-0.30927 -20.6,-0.99829 -30.5,-1.53115 -49.53914,-2.66643 -112.87723,-5.49618 -123,-5.49524 -4.4,4e-4 -11.375,0.79848 -15.5,1.77352 -4.125,0.97503 -11.325,2.64172 -16,3.70376 -4.675,1.06204 -10.3,2.40797 -12.5,2.99095 -2.2,0.58299 -5.8,1.47983 -8,1.99298 -10.97412,2.55971 -17.00432,4.0713 -28,7.01873 -6.6,1.76916 -13.8,3.78237 -16,4.47381 -2.2,0.69144 -6.025,1.85028 -8.5,2.57521 -2.475,0.72494 -4.9275,1.68981 -5.45,2.14418 -0.5225,0.45437 -1.76611,0.82612 -2.76357,0.82612 -0.99746,0 -2.59496,0.39178 -3.55,0.87062 -0.95504,0.47884 -4.09577,1.94134 -6.97941,3.25 -2.88363,1.30866 -5.51575,3.21191 -5.84914,4.22945 -0.54959,1.67737 -0.9003,1.57188 -3.75703,-1.13001 -3.88732,-3.67663 -6.15382,-4.86208 -13.99285,-7.31874 -10.68179,-3.34755 -16.82771,-4.71201 -30.658,-6.8064 -6.24081,-0.94508 -6.10895,-0.96752 3.30707,-0.56267 5.39389,0.23192 11.69389,0.91766 14,1.52388 2.30611,0.60622 5.99293,1.56788 8.19293,2.13702 5.28921,1.36834 6.84312,1.97313 14.36597,5.59136 l 6.36596,3.06181 6.13404,-2.85791 c 9.50858,-4.43015 25.21642,-9.47792 48.13403,-15.46806 4.95,-1.29382 12.375,-3.23864 16.5,-4.32181 10.04016,-2.63647 29.59697,-7.19858 30.85865,-7.19858 0.55613,0 2.23872,-0.46672 3.73909,-1.03716 5.67509,-2.15767 0.62819,-3.20222 -19.76892,-4.09156 -11.18085,-0.4875 -26.85382,-1.13192 -34.82882,-1.43205 -16.59588,-0.62457 -19,-0.97545 -19,-2.77307 0,-1.41717 6.03908,-4.64709 8.78393,-4.69796 0.94384,-0.0175 2.53463,-0.65231 3.53509,-1.41071 1.75868,-1.33317 1.75868,-1.3979 0,-1.95169 -2.96751,-0.93443 -12.56081,1.23493 -32.81902,7.42145 -3.85,1.17573 -8.35,2.51401 -10,2.97397 -4.47899,1.24857 -32.61899,10.86596 -35.5,12.13281 -1.375,0.60462 -3.28139,1.49681 -4.23643,1.98264 -0.95504,0.48583 -2.2407,0.88333 -2.85703,0.88333 -0.61633,0 -4.02324,1.3853 -7.57091,3.07845 -5.31832,2.53819 -6.24326,3.32792 -5.27052,4.5 1.01543,1.22352 -3.12785,1.42155 -29.74267,1.42155 -22.71745,0 -31.24085,0.31841 -32.12244,1.2 -1.89261,1.89261 -1.64528,27.21187 0.28467,29.14182 2.39874,2.39873 13.45034,2.87494 55.01533,2.3706 41.13925,-0.49918 45.05878,-0.89996 54.76789,-5.60006 2.38197,-1.15309 5.12105,-3.50077 6.18417,-5.30048 2.29202,-3.88009 3.30629,-2.17906 1.1672,1.9575 -1.02599,1.98405 -3.42287,3.7669 -7.56074,5.62387 -3.33219,1.4954 -6.05852,3.14367 -6.05852,3.66283 0,0.58001 20.41788,0.94392 52.96107,0.94392 h 52.96106 l 0.28894,8.75 0.28893,8.75 h 5 5 l 0.5,-9 0.5,-9 h 41 41 l 0.31389,3.80913 c 0.20698,2.51177 -0.38905,5.00052 -1.75,7.30716 -4.19451,7.10916 -3.90472,7.2849 12.68611,7.69355 17.32374,0.42671 29.06238,0.0187 38.75,-1.34676 z"
       id="path802" />
  </g>
</svg>
